<mxfile host="app.diagrams.net" modified="2024-01-04T18:07:57.672Z" agent="Mozilla/5.0 (Windows NT 10.0; Win64; x64) AppleWebKit/537.36 (KHTML, like Gecko) Chrome/120.0.0.0 Safari/537.36" etag="JPfBRyo51600l7JHnK7_" version="22.1.16" type="device">
  <diagram name="PÃ¡gina-1" id="FRXNPJqEd2sz6cCnzYLV">
    <mxGraphModel dx="1050" dy="599" grid="1" gridSize="10" guides="1" tooltips="1" connect="1" arrows="1" fold="1" page="1" pageScale="1" pageWidth="827" pageHeight="1169" math="0" shadow="0">
      <root>
        <mxCell id="0" />
        <mxCell id="1" parent="0" />
        <mxCell id="in_tTlV5oy0GcPjxDq5F-505" value="suppliers" style="swimlane;fontStyle=0;childLayout=stackLayout;horizontal=1;startSize=26;horizontalStack=0;resizeParent=1;resizeLast=0;collapsible=1;marginBottom=0;swimlaneFillColor=default;align=center;fillColor=#cce5ff;strokeColor=#36393d;" parent="1" vertex="1">
          <mxGeometry x="69.89" y="40" width="200" height="312" as="geometry">
            <mxRectangle x="40" y="40" width="90" height="30" as="alternateBounds" />
          </mxGeometry>
        </mxCell>
        <mxCell id="in_tTlV5oy0GcPjxDq5F-506" value="id" style="shape=partialRectangle;top=0;left=0;right=0;bottom=0;align=left;verticalAlign=top;spacingTop=-2;fillColor=none;spacingLeft=64;spacingRight=4;overflow=hidden;rotatable=0;points=[[0,0.5],[1,0.5]];portConstraint=eastwest;dropTarget=0;" parent="in_tTlV5oy0GcPjxDq5F-505" vertex="1">
          <mxGeometry y="26" width="200" height="26" as="geometry" />
        </mxCell>
        <mxCell id="in_tTlV5oy0GcPjxDq5F-507" value="PK" style="shape=partialRectangle;top=0;left=0;bottom=0;fillColor=none;align=left;verticalAlign=middle;spacingLeft=4;spacingRight=4;overflow=hidden;rotatable=180;points=[];portConstraint=eastwest;part=1;" parent="in_tTlV5oy0GcPjxDq5F-506" vertex="1" connectable="0">
          <mxGeometry width="54" height="26" as="geometry" />
        </mxCell>
        <mxCell id="in_tTlV5oy0GcPjxDq5F-508" value="code" style="shape=partialRectangle;top=0;left=0;right=0;bottom=0;align=left;verticalAlign=top;spacingTop=-2;fillColor=none;spacingLeft=64;spacingRight=4;overflow=hidden;rotatable=0;points=[[0,0.5],[1,0.5]];portConstraint=eastwest;dropTarget=0;" parent="in_tTlV5oy0GcPjxDq5F-505" vertex="1">
          <mxGeometry y="52" width="200" height="26" as="geometry" />
        </mxCell>
        <mxCell id="in_tTlV5oy0GcPjxDq5F-509" value="" style="shape=partialRectangle;top=0;left=0;bottom=0;fillColor=none;align=left;verticalAlign=middle;spacingLeft=4;spacingRight=4;overflow=hidden;rotatable=180;points=[];portConstraint=eastwest;part=1;" parent="in_tTlV5oy0GcPjxDq5F-508" vertex="1" connectable="0">
          <mxGeometry width="54" height="26" as="geometry" />
        </mxCell>
        <mxCell id="in_tTlV5oy0GcPjxDq5F-510" value="businessName" style="shape=partialRectangle;top=0;left=0;right=0;bottom=0;align=left;verticalAlign=top;spacingTop=-2;fillColor=none;spacingLeft=64;spacingRight=4;overflow=hidden;rotatable=0;points=[[0,0.5],[1,0.5]];portConstraint=eastwest;dropTarget=0;" parent="in_tTlV5oy0GcPjxDq5F-505" vertex="1">
          <mxGeometry y="78" width="200" height="26" as="geometry" />
        </mxCell>
        <mxCell id="in_tTlV5oy0GcPjxDq5F-511" value="" style="shape=partialRectangle;top=0;left=0;bottom=0;fillColor=none;align=left;verticalAlign=middle;spacingLeft=4;spacingRight=4;overflow=hidden;rotatable=180;points=[];portConstraint=eastwest;part=1;" parent="in_tTlV5oy0GcPjxDq5F-510" vertex="1" connectable="0">
          <mxGeometry width="54" height="26" as="geometry" />
        </mxCell>
        <mxCell id="in_tTlV5oy0GcPjxDq5F-512" value="industry" style="shape=partialRectangle;top=0;left=0;right=0;bottom=0;align=left;verticalAlign=top;spacingTop=-2;fillColor=none;spacingLeft=64;spacingRight=4;overflow=hidden;rotatable=0;points=[[0,0.5],[1,0.5]];portConstraint=eastwest;dropTarget=0;" parent="in_tTlV5oy0GcPjxDq5F-505" vertex="1">
          <mxGeometry y="104" width="200" height="26" as="geometry" />
        </mxCell>
        <mxCell id="in_tTlV5oy0GcPjxDq5F-513" value="" style="shape=partialRectangle;top=0;left=0;bottom=0;fillColor=none;align=left;verticalAlign=middle;spacingLeft=4;spacingRight=4;overflow=hidden;rotatable=180;points=[];portConstraint=eastwest;part=1;" parent="in_tTlV5oy0GcPjxDq5F-512" vertex="1" connectable="0">
          <mxGeometry width="54" height="26" as="geometry" />
        </mxCell>
        <mxCell id="in_tTlV5oy0GcPjxDq5F-514" value="website" style="shape=partialRectangle;top=0;left=0;right=0;bottom=0;align=left;verticalAlign=top;spacingTop=-2;fillColor=none;spacingLeft=64;spacingRight=4;overflow=hidden;rotatable=0;points=[[0,0.5],[1,0.5]];portConstraint=eastwest;dropTarget=0;" parent="in_tTlV5oy0GcPjxDq5F-505" vertex="1">
          <mxGeometry y="130" width="200" height="26" as="geometry" />
        </mxCell>
        <mxCell id="in_tTlV5oy0GcPjxDq5F-515" value="" style="shape=partialRectangle;top=0;left=0;bottom=0;fillColor=none;align=left;verticalAlign=middle;spacingLeft=4;spacingRight=4;overflow=hidden;rotatable=180;points=[];portConstraint=eastwest;part=1;" parent="in_tTlV5oy0GcPjxDq5F-514" vertex="1" connectable="0">
          <mxGeometry width="54" height="26" as="geometry" />
        </mxCell>
        <mxCell id="in_tTlV5oy0GcPjxDq5F-516" value="email" style="shape=partialRectangle;top=0;left=0;right=0;bottom=0;align=left;verticalAlign=top;spacingTop=-2;fillColor=none;spacingLeft=64;spacingRight=4;overflow=hidden;rotatable=0;points=[[0,0.5],[1,0.5]];portConstraint=eastwest;dropTarget=0;" parent="in_tTlV5oy0GcPjxDq5F-505" vertex="1">
          <mxGeometry y="156" width="200" height="26" as="geometry" />
        </mxCell>
        <mxCell id="in_tTlV5oy0GcPjxDq5F-517" value="" style="shape=partialRectangle;top=0;left=0;bottom=0;fillColor=none;align=left;verticalAlign=middle;spacingLeft=4;spacingRight=4;overflow=hidden;rotatable=180;points=[];portConstraint=eastwest;part=1;" parent="in_tTlV5oy0GcPjxDq5F-516" vertex="1" connectable="0">
          <mxGeometry width="54" height="26" as="geometry" />
        </mxCell>
        <mxCell id="in_tTlV5oy0GcPjxDq5F-518" value="phone" style="shape=partialRectangle;top=0;left=0;right=0;bottom=0;align=left;verticalAlign=top;spacingTop=-2;fillColor=none;spacingLeft=64;spacingRight=4;overflow=hidden;rotatable=0;points=[[0,0.5],[1,0.5]];portConstraint=eastwest;dropTarget=0;" parent="in_tTlV5oy0GcPjxDq5F-505" vertex="1">
          <mxGeometry y="182" width="200" height="26" as="geometry" />
        </mxCell>
        <mxCell id="in_tTlV5oy0GcPjxDq5F-519" value="" style="shape=partialRectangle;top=0;left=0;bottom=0;fillColor=none;align=left;verticalAlign=middle;spacingLeft=4;spacingRight=4;overflow=hidden;rotatable=180;points=[];portConstraint=eastwest;part=1;" parent="in_tTlV5oy0GcPjxDq5F-518" vertex="1" connectable="0">
          <mxGeometry width="54" height="26" as="geometry" />
        </mxCell>
        <mxCell id="in_tTlV5oy0GcPjxDq5F-520" value="address_id" style="shape=partialRectangle;top=0;left=0;right=0;bottom=0;align=left;verticalAlign=top;spacingTop=-2;fillColor=none;spacingLeft=64;spacingRight=4;overflow=hidden;rotatable=0;points=[[0,0.5],[1,0.5]];portConstraint=eastwest;dropTarget=0;" parent="in_tTlV5oy0GcPjxDq5F-505" vertex="1">
          <mxGeometry y="208" width="200" height="26" as="geometry" />
        </mxCell>
        <mxCell id="in_tTlV5oy0GcPjxDq5F-521" value="FK" style="shape=partialRectangle;top=0;left=0;bottom=0;fillColor=none;align=left;verticalAlign=middle;spacingLeft=4;spacingRight=4;overflow=hidden;rotatable=180;points=[];portConstraint=eastwest;part=1;" parent="in_tTlV5oy0GcPjxDq5F-520" vertex="1" connectable="0">
          <mxGeometry width="54" height="26" as="geometry" />
        </mxCell>
        <mxCell id="in_tTlV5oy0GcPjxDq5F-522" value="tax_information_id" style="shape=partialRectangle;top=0;left=0;right=0;bottom=0;align=left;verticalAlign=top;spacingTop=-2;fillColor=none;spacingLeft=64;spacingRight=4;overflow=hidden;rotatable=0;points=[[0,0.5],[1,0.5]];portConstraint=eastwest;dropTarget=0;" parent="in_tTlV5oy0GcPjxDq5F-505" vertex="1">
          <mxGeometry y="234" width="200" height="26" as="geometry" />
        </mxCell>
        <mxCell id="in_tTlV5oy0GcPjxDq5F-523" value="FK" style="shape=partialRectangle;top=0;left=0;bottom=0;fillColor=none;align=left;verticalAlign=middle;spacingLeft=4;spacingRight=4;overflow=hidden;rotatable=180;points=[];portConstraint=eastwest;part=1;" parent="in_tTlV5oy0GcPjxDq5F-522" vertex="1" connectable="0">
          <mxGeometry width="54" height="26" as="geometry" />
        </mxCell>
        <mxCell id="in_tTlV5oy0GcPjxDq5F-524" value="contact_detail_id" style="shape=partialRectangle;top=0;left=0;right=0;bottom=0;align=left;verticalAlign=top;spacingTop=-2;fillColor=none;spacingLeft=64;spacingRight=4;overflow=hidden;rotatable=0;points=[[0,0.5],[1,0.5]];portConstraint=eastwest;dropTarget=0;" parent="in_tTlV5oy0GcPjxDq5F-505" vertex="1">
          <mxGeometry y="260" width="200" height="26" as="geometry" />
        </mxCell>
        <mxCell id="in_tTlV5oy0GcPjxDq5F-525" value="FK" style="shape=partialRectangle;top=0;left=0;bottom=0;fillColor=none;align=left;verticalAlign=middle;spacingLeft=4;spacingRight=4;overflow=hidden;rotatable=180;points=[];portConstraint=eastwest;part=1;" parent="in_tTlV5oy0GcPjxDq5F-524" vertex="1" connectable="0">
          <mxGeometry width="54" height="26" as="geometry" />
        </mxCell>
        <mxCell id="in_tTlV5oy0GcPjxDq5F-526" value="is_deleted" style="shape=partialRectangle;top=0;left=0;right=0;bottom=0;align=left;verticalAlign=top;spacingTop=-2;fillColor=none;spacingLeft=64;spacingRight=4;overflow=hidden;rotatable=0;points=[[0,0.5],[1,0.5]];portConstraint=eastwest;dropTarget=0;" parent="in_tTlV5oy0GcPjxDq5F-505" vertex="1">
          <mxGeometry y="286" width="200" height="26" as="geometry" />
        </mxCell>
        <mxCell id="in_tTlV5oy0GcPjxDq5F-527" value="" style="shape=partialRectangle;top=0;left=0;bottom=0;fillColor=none;align=left;verticalAlign=middle;spacingLeft=4;spacingRight=4;overflow=hidden;rotatable=180;points=[];portConstraint=eastwest;part=1;" parent="in_tTlV5oy0GcPjxDq5F-526" vertex="1" connectable="0">
          <mxGeometry width="54" height="26" as="geometry" />
        </mxCell>
        <mxCell id="in_tTlV5oy0GcPjxDq5F-528" value="addresses" style="swimlane;fontStyle=0;childLayout=stackLayout;horizontal=1;startSize=26;horizontalStack=0;resizeParent=1;resizeLast=0;collapsible=1;marginBottom=0;swimlaneFillColor=default;align=center;fillColor=#E5CCFF;strokeColor=#36393d;" parent="1" vertex="1">
          <mxGeometry x="309.89" y="40" width="160" height="182" as="geometry" />
        </mxCell>
        <mxCell id="in_tTlV5oy0GcPjxDq5F-529" value="id" style="shape=partialRectangle;top=0;left=0;right=0;bottom=0;align=left;verticalAlign=top;spacingTop=-2;fillColor=none;spacingLeft=64;spacingRight=4;overflow=hidden;rotatable=0;points=[[0,0.5],[1,0.5]];portConstraint=eastwest;dropTarget=0;" parent="in_tTlV5oy0GcPjxDq5F-528" vertex="1">
          <mxGeometry y="26" width="160" height="26" as="geometry" />
        </mxCell>
        <mxCell id="in_tTlV5oy0GcPjxDq5F-530" value="PK" style="shape=partialRectangle;top=0;left=0;bottom=0;fillColor=none;align=left;verticalAlign=middle;spacingLeft=4;spacingRight=4;overflow=hidden;rotatable=180;points=[];portConstraint=eastwest;part=1;" parent="in_tTlV5oy0GcPjxDq5F-529" vertex="1" connectable="0">
          <mxGeometry width="54" height="26" as="geometry" />
        </mxCell>
        <mxCell id="in_tTlV5oy0GcPjxDq5F-531" value="street" style="shape=partialRectangle;top=0;left=0;right=0;bottom=0;align=left;verticalAlign=top;spacingTop=-2;fillColor=none;spacingLeft=64;spacingRight=4;overflow=hidden;rotatable=0;points=[[0,0.5],[1,0.5]];portConstraint=eastwest;dropTarget=0;" parent="in_tTlV5oy0GcPjxDq5F-528" vertex="1">
          <mxGeometry y="52" width="160" height="26" as="geometry" />
        </mxCell>
        <mxCell id="in_tTlV5oy0GcPjxDq5F-532" value="" style="shape=partialRectangle;top=0;left=0;bottom=0;fillColor=none;align=left;verticalAlign=middle;spacingLeft=4;spacingRight=4;overflow=hidden;rotatable=180;points=[];portConstraint=eastwest;part=1;" parent="in_tTlV5oy0GcPjxDq5F-531" vertex="1" connectable="0">
          <mxGeometry width="54" height="26" as="geometry" />
        </mxCell>
        <mxCell id="in_tTlV5oy0GcPjxDq5F-533" value="number" style="shape=partialRectangle;top=0;left=0;right=0;bottom=0;align=left;verticalAlign=top;spacingTop=-2;fillColor=none;spacingLeft=64;spacingRight=4;overflow=hidden;rotatable=0;points=[[0,0.5],[1,0.5]];portConstraint=eastwest;dropTarget=0;" parent="in_tTlV5oy0GcPjxDq5F-528" vertex="1">
          <mxGeometry y="78" width="160" height="26" as="geometry" />
        </mxCell>
        <mxCell id="in_tTlV5oy0GcPjxDq5F-534" value="" style="shape=partialRectangle;top=0;left=0;bottom=0;fillColor=none;align=left;verticalAlign=middle;spacingLeft=4;spacingRight=4;overflow=hidden;rotatable=180;points=[];portConstraint=eastwest;part=1;" parent="in_tTlV5oy0GcPjxDq5F-533" vertex="1" connectable="0">
          <mxGeometry width="54" height="26" as="geometry" />
        </mxCell>
        <mxCell id="in_tTlV5oy0GcPjxDq5F-535" value="postal_code" style="shape=partialRectangle;top=0;left=0;right=0;bottom=0;align=left;verticalAlign=top;spacingTop=-2;fillColor=none;spacingLeft=64;spacingRight=4;overflow=hidden;rotatable=0;points=[[0,0.5],[1,0.5]];portConstraint=eastwest;dropTarget=0;" parent="in_tTlV5oy0GcPjxDq5F-528" vertex="1">
          <mxGeometry y="104" width="160" height="26" as="geometry" />
        </mxCell>
        <mxCell id="in_tTlV5oy0GcPjxDq5F-536" value="" style="shape=partialRectangle;top=0;left=0;bottom=0;fillColor=none;align=left;verticalAlign=middle;spacingLeft=4;spacingRight=4;overflow=hidden;rotatable=180;points=[];portConstraint=eastwest;part=1;" parent="in_tTlV5oy0GcPjxDq5F-535" vertex="1" connectable="0">
          <mxGeometry width="54" height="26" as="geometry" />
        </mxCell>
        <mxCell id="in_tTlV5oy0GcPjxDq5F-537" value="city" style="shape=partialRectangle;top=0;left=0;right=0;bottom=0;align=left;verticalAlign=top;spacingTop=-2;fillColor=none;spacingLeft=64;spacingRight=4;overflow=hidden;rotatable=0;points=[[0,0.5],[1,0.5]];portConstraint=eastwest;dropTarget=0;" parent="in_tTlV5oy0GcPjxDq5F-528" vertex="1">
          <mxGeometry y="130" width="160" height="26" as="geometry" />
        </mxCell>
        <mxCell id="in_tTlV5oy0GcPjxDq5F-538" value="" style="shape=partialRectangle;top=0;left=0;bottom=0;fillColor=none;align=left;verticalAlign=middle;spacingLeft=4;spacingRight=4;overflow=hidden;rotatable=180;points=[];portConstraint=eastwest;part=1;" parent="in_tTlV5oy0GcPjxDq5F-537" vertex="1" connectable="0">
          <mxGeometry width="54" height="26" as="geometry" />
        </mxCell>
        <mxCell id="in_tTlV5oy0GcPjxDq5F-539" value="state_id" style="shape=partialRectangle;top=0;left=0;right=0;bottom=0;align=left;verticalAlign=top;spacingTop=-2;fillColor=none;spacingLeft=64;spacingRight=4;overflow=hidden;rotatable=0;points=[[0,0.5],[1,0.5]];portConstraint=eastwest;dropTarget=0;" parent="in_tTlV5oy0GcPjxDq5F-528" vertex="1">
          <mxGeometry y="156" width="160" height="26" as="geometry" />
        </mxCell>
        <mxCell id="in_tTlV5oy0GcPjxDq5F-540" value="FK" style="shape=partialRectangle;top=0;left=0;bottom=0;fillColor=none;align=left;verticalAlign=middle;spacingLeft=4;spacingRight=4;overflow=hidden;rotatable=180;points=[];portConstraint=eastwest;part=1;" parent="in_tTlV5oy0GcPjxDq5F-539" vertex="1" connectable="0">
          <mxGeometry width="54" height="26" as="geometry" />
        </mxCell>
        <mxCell id="in_tTlV5oy0GcPjxDq5F-543" value="states" style="swimlane;fontStyle=0;childLayout=stackLayout;horizontal=1;startSize=26;horizontalStack=0;resizeParent=1;resizeLast=0;collapsible=1;marginBottom=0;swimlaneFillColor=default;align=center;fillColor=#E5CCFF;strokeColor=#36393d;" parent="1" vertex="1">
          <mxGeometry x="509.89" y="80" width="155" height="104" as="geometry" />
        </mxCell>
        <mxCell id="in_tTlV5oy0GcPjxDq5F-544" value="id" style="shape=partialRectangle;top=0;left=0;right=0;bottom=0;align=left;verticalAlign=top;spacingTop=-2;fillColor=none;spacingLeft=64;spacingRight=4;overflow=hidden;rotatable=0;points=[[0,0.5],[1,0.5]];portConstraint=eastwest;dropTarget=0;" parent="in_tTlV5oy0GcPjxDq5F-543" vertex="1">
          <mxGeometry y="26" width="155" height="26" as="geometry" />
        </mxCell>
        <mxCell id="in_tTlV5oy0GcPjxDq5F-545" value="PK" style="shape=partialRectangle;top=0;left=0;bottom=0;fillColor=none;align=left;verticalAlign=middle;spacingLeft=4;spacingRight=4;overflow=hidden;rotatable=180;points=[];portConstraint=eastwest;part=1;" parent="in_tTlV5oy0GcPjxDq5F-544" vertex="1" connectable="0">
          <mxGeometry width="54" height="26" as="geometry" />
        </mxCell>
        <mxCell id="in_tTlV5oy0GcPjxDq5F-546" value="name" style="shape=partialRectangle;top=0;left=0;right=0;bottom=0;align=left;verticalAlign=top;spacingTop=-2;fillColor=none;spacingLeft=64;spacingRight=4;overflow=hidden;rotatable=0;points=[[0,0.5],[1,0.5]];portConstraint=eastwest;dropTarget=0;" parent="in_tTlV5oy0GcPjxDq5F-543" vertex="1">
          <mxGeometry y="52" width="155" height="26" as="geometry" />
        </mxCell>
        <mxCell id="in_tTlV5oy0GcPjxDq5F-547" value="" style="shape=partialRectangle;top=0;left=0;bottom=0;fillColor=none;align=left;verticalAlign=middle;spacingLeft=4;spacingRight=4;overflow=hidden;rotatable=180;points=[];portConstraint=eastwest;part=1;" parent="in_tTlV5oy0GcPjxDq5F-546" vertex="1" connectable="0">
          <mxGeometry width="54" height="26" as="geometry" />
        </mxCell>
        <mxCell id="psbHED3_MxhWna70VKSI-2" value="country_id" style="shape=partialRectangle;top=0;left=0;right=0;bottom=0;align=left;verticalAlign=top;spacingTop=-2;fillColor=none;spacingLeft=64;spacingRight=4;overflow=hidden;rotatable=0;points=[[0,0.5],[1,0.5]];portConstraint=eastwest;dropTarget=0;" parent="in_tTlV5oy0GcPjxDq5F-543" vertex="1">
          <mxGeometry y="78" width="155" height="26" as="geometry" />
        </mxCell>
        <mxCell id="psbHED3_MxhWna70VKSI-3" value="FK" style="shape=partialRectangle;top=0;left=0;bottom=0;fillColor=none;align=left;verticalAlign=middle;spacingLeft=4;spacingRight=4;overflow=hidden;rotatable=180;points=[];portConstraint=eastwest;part=1;" parent="psbHED3_MxhWna70VKSI-2" vertex="1" connectable="0">
          <mxGeometry width="54" height="26" as="geometry" />
        </mxCell>
        <mxCell id="in_tTlV5oy0GcPjxDq5F-548" value="countries" style="swimlane;fontStyle=0;childLayout=stackLayout;horizontal=1;startSize=26;horizontalStack=0;resizeParent=1;resizeLast=0;collapsible=1;marginBottom=0;swimlaneFillColor=default;align=center;fillColor=#E5CCFF;strokeColor=#36393d;" parent="1" vertex="1">
          <mxGeometry x="509.89" y="196" width="157" height="78" as="geometry" />
        </mxCell>
        <mxCell id="in_tTlV5oy0GcPjxDq5F-549" value="id" style="shape=partialRectangle;top=0;left=0;right=0;bottom=0;align=left;verticalAlign=top;spacingTop=-2;fillColor=none;spacingLeft=64;spacingRight=4;overflow=hidden;rotatable=0;points=[[0,0.5],[1,0.5]];portConstraint=eastwest;dropTarget=0;" parent="in_tTlV5oy0GcPjxDq5F-548" vertex="1">
          <mxGeometry y="26" width="157" height="26" as="geometry" />
        </mxCell>
        <mxCell id="in_tTlV5oy0GcPjxDq5F-550" value="PK" style="shape=partialRectangle;top=0;left=0;bottom=0;fillColor=none;align=left;verticalAlign=middle;spacingLeft=4;spacingRight=4;overflow=hidden;rotatable=180;points=[];portConstraint=eastwest;part=1;" parent="in_tTlV5oy0GcPjxDq5F-549" vertex="1" connectable="0">
          <mxGeometry width="54" height="26" as="geometry" />
        </mxCell>
        <mxCell id="in_tTlV5oy0GcPjxDq5F-551" value="name" style="shape=partialRectangle;top=0;left=0;right=0;bottom=0;align=left;verticalAlign=top;spacingTop=-2;fillColor=none;spacingLeft=64;spacingRight=4;overflow=hidden;rotatable=0;points=[[0,0.5],[1,0.5]];portConstraint=eastwest;dropTarget=0;" parent="in_tTlV5oy0GcPjxDq5F-548" vertex="1">
          <mxGeometry y="52" width="157" height="26" as="geometry" />
        </mxCell>
        <mxCell id="in_tTlV5oy0GcPjxDq5F-552" value="" style="shape=partialRectangle;top=0;left=0;bottom=0;fillColor=none;align=left;verticalAlign=middle;spacingLeft=4;spacingRight=4;overflow=hidden;rotatable=180;points=[];portConstraint=eastwest;part=1;" parent="in_tTlV5oy0GcPjxDq5F-551" vertex="1" connectable="0">
          <mxGeometry width="54" height="26" as="geometry" />
        </mxCell>
        <mxCell id="in_tTlV5oy0GcPjxDq5F-553" value="contact_details" style="swimlane;fontStyle=0;childLayout=stackLayout;horizontal=1;startSize=26;fillColor=#cce5ff;horizontalStack=0;resizeParent=1;resizeLast=0;collapsible=1;marginBottom=0;swimlaneFillColor=default;align=center;strokeColor=#36393d;" parent="1" vertex="1">
          <mxGeometry x="309.89" y="403" width="165" height="182" as="geometry" />
        </mxCell>
        <mxCell id="in_tTlV5oy0GcPjxDq5F-554" value="id" style="shape=partialRectangle;top=0;left=0;right=0;bottom=0;align=left;verticalAlign=top;spacingTop=-2;fillColor=none;spacingLeft=64;spacingRight=4;overflow=hidden;rotatable=0;points=[[0,0.5],[1,0.5]];portConstraint=eastwest;dropTarget=0;" parent="in_tTlV5oy0GcPjxDq5F-553" vertex="1">
          <mxGeometry y="26" width="165" height="26" as="geometry" />
        </mxCell>
        <mxCell id="in_tTlV5oy0GcPjxDq5F-555" value="PK" style="shape=partialRectangle;top=0;left=0;bottom=0;fillColor=none;align=left;verticalAlign=middle;spacingLeft=4;spacingRight=4;overflow=hidden;rotatable=180;points=[];portConstraint=eastwest;part=1;" parent="in_tTlV5oy0GcPjxDq5F-554" vertex="1" connectable="0">
          <mxGeometry width="54" height="26" as="geometry" />
        </mxCell>
        <mxCell id="in_tTlV5oy0GcPjxDq5F-556" value="first_name" style="shape=partialRectangle;top=0;left=0;right=0;bottom=0;align=left;verticalAlign=top;spacingTop=-2;fillColor=none;spacingLeft=64;spacingRight=4;overflow=hidden;rotatable=0;points=[[0,0.5],[1,0.5]];portConstraint=eastwest;dropTarget=0;" parent="in_tTlV5oy0GcPjxDq5F-553" vertex="1">
          <mxGeometry y="52" width="165" height="26" as="geometry" />
        </mxCell>
        <mxCell id="in_tTlV5oy0GcPjxDq5F-557" value="" style="shape=partialRectangle;top=0;left=0;bottom=0;fillColor=none;align=left;verticalAlign=middle;spacingLeft=4;spacingRight=4;overflow=hidden;rotatable=180;points=[];portConstraint=eastwest;part=1;" parent="in_tTlV5oy0GcPjxDq5F-556" vertex="1" connectable="0">
          <mxGeometry width="54" height="26" as="geometry" />
        </mxCell>
        <mxCell id="in_tTlV5oy0GcPjxDq5F-558" value="last_name" style="shape=partialRectangle;top=0;left=0;right=0;bottom=0;align=left;verticalAlign=top;spacingTop=-2;fillColor=none;spacingLeft=64;spacingRight=4;overflow=hidden;rotatable=0;points=[[0,0.5],[1,0.5]];portConstraint=eastwest;dropTarget=0;" parent="in_tTlV5oy0GcPjxDq5F-553" vertex="1">
          <mxGeometry y="78" width="165" height="26" as="geometry" />
        </mxCell>
        <mxCell id="in_tTlV5oy0GcPjxDq5F-559" value="" style="shape=partialRectangle;top=0;left=0;bottom=0;fillColor=none;align=left;verticalAlign=middle;spacingLeft=4;spacingRight=4;overflow=hidden;rotatable=180;points=[];portConstraint=eastwest;part=1;" parent="in_tTlV5oy0GcPjxDq5F-558" vertex="1" connectable="0">
          <mxGeometry width="54" height="26" as="geometry" />
        </mxCell>
        <mxCell id="in_tTlV5oy0GcPjxDq5F-560" value="phone" style="shape=partialRectangle;top=0;left=0;right=0;bottom=0;align=left;verticalAlign=top;spacingTop=-2;fillColor=none;spacingLeft=64;spacingRight=4;overflow=hidden;rotatable=0;points=[[0,0.5],[1,0.5]];portConstraint=eastwest;dropTarget=0;" parent="in_tTlV5oy0GcPjxDq5F-553" vertex="1">
          <mxGeometry y="104" width="165" height="26" as="geometry" />
        </mxCell>
        <mxCell id="in_tTlV5oy0GcPjxDq5F-561" value="" style="shape=partialRectangle;top=0;left=0;bottom=0;fillColor=none;align=left;verticalAlign=middle;spacingLeft=4;spacingRight=4;overflow=hidden;rotatable=180;points=[];portConstraint=eastwest;part=1;" parent="in_tTlV5oy0GcPjxDq5F-560" vertex="1" connectable="0">
          <mxGeometry width="54" height="26" as="geometry" />
        </mxCell>
        <mxCell id="in_tTlV5oy0GcPjxDq5F-562" value="email" style="shape=partialRectangle;top=0;left=0;right=0;bottom=0;align=left;verticalAlign=top;spacingTop=-2;fillColor=none;spacingLeft=64;spacingRight=4;overflow=hidden;rotatable=0;points=[[0,0.5],[1,0.5]];portConstraint=eastwest;dropTarget=0;" parent="in_tTlV5oy0GcPjxDq5F-553" vertex="1">
          <mxGeometry y="130" width="165" height="26" as="geometry" />
        </mxCell>
        <mxCell id="in_tTlV5oy0GcPjxDq5F-563" value="" style="shape=partialRectangle;top=0;left=0;bottom=0;fillColor=none;align=left;verticalAlign=middle;spacingLeft=4;spacingRight=4;overflow=hidden;rotatable=180;points=[];portConstraint=eastwest;part=1;" parent="in_tTlV5oy0GcPjxDq5F-562" vertex="1" connectable="0">
          <mxGeometry width="54" height="26" as="geometry" />
        </mxCell>
        <mxCell id="in_tTlV5oy0GcPjxDq5F-564" value="role" style="shape=partialRectangle;top=0;left=0;right=0;bottom=0;align=left;verticalAlign=top;spacingTop=-2;fillColor=none;spacingLeft=64;spacingRight=4;overflow=hidden;rotatable=0;points=[[0,0.5],[1,0.5]];portConstraint=eastwest;dropTarget=0;" parent="in_tTlV5oy0GcPjxDq5F-553" vertex="1">
          <mxGeometry y="156" width="165" height="26" as="geometry" />
        </mxCell>
        <mxCell id="in_tTlV5oy0GcPjxDq5F-565" value="" style="shape=partialRectangle;top=0;left=0;bottom=0;fillColor=none;align=left;verticalAlign=middle;spacingLeft=4;spacingRight=4;overflow=hidden;rotatable=180;points=[];portConstraint=eastwest;part=1;" parent="in_tTlV5oy0GcPjxDq5F-564" vertex="1" connectable="0">
          <mxGeometry width="54" height="26" as="geometry" />
        </mxCell>
        <mxCell id="in_tTlV5oy0GcPjxDq5F-566" value="tax_information" style="swimlane;fontStyle=0;childLayout=stackLayout;horizontal=1;startSize=26;fillColor=#cce5ff;horizontalStack=0;resizeParent=1;resizeLast=0;collapsible=1;marginBottom=0;swimlaneFillColor=default;align=center;strokeColor=#36393d;" parent="1" vertex="1">
          <mxGeometry x="309.89" y="274" width="160" height="104" as="geometry" />
        </mxCell>
        <mxCell id="in_tTlV5oy0GcPjxDq5F-567" value="id" style="shape=partialRectangle;top=0;left=0;right=0;bottom=0;align=left;verticalAlign=top;spacingTop=-2;fillColor=none;spacingLeft=64;spacingRight=4;overflow=hidden;rotatable=0;points=[[0,0.5],[1,0.5]];portConstraint=eastwest;dropTarget=0;" parent="in_tTlV5oy0GcPjxDq5F-566" vertex="1">
          <mxGeometry y="26" width="160" height="26" as="geometry" />
        </mxCell>
        <mxCell id="in_tTlV5oy0GcPjxDq5F-568" value="PK" style="shape=partialRectangle;top=0;left=0;bottom=0;fillColor=none;align=left;verticalAlign=middle;spacingLeft=4;spacingRight=4;overflow=hidden;rotatable=180;points=[];portConstraint=eastwest;part=1;" parent="in_tTlV5oy0GcPjxDq5F-567" vertex="1" connectable="0">
          <mxGeometry width="54" height="26" as="geometry" />
        </mxCell>
        <mxCell id="in_tTlV5oy0GcPjxDq5F-569" value="cuit" style="shape=partialRectangle;top=0;left=0;right=0;bottom=0;align=left;verticalAlign=top;spacingTop=-2;fillColor=none;spacingLeft=64;spacingRight=4;overflow=hidden;rotatable=0;points=[[0,0.5],[1,0.5]];portConstraint=eastwest;dropTarget=0;" parent="in_tTlV5oy0GcPjxDq5F-566" vertex="1">
          <mxGeometry y="52" width="160" height="26" as="geometry" />
        </mxCell>
        <mxCell id="in_tTlV5oy0GcPjxDq5F-570" value="" style="shape=partialRectangle;top=0;left=0;bottom=0;fillColor=none;align=left;verticalAlign=middle;spacingLeft=4;spacingRight=4;overflow=hidden;rotatable=180;points=[];portConstraint=eastwest;part=1;" parent="in_tTlV5oy0GcPjxDq5F-569" vertex="1" connectable="0">
          <mxGeometry width="54" height="26" as="geometry" />
        </mxCell>
        <mxCell id="in_tTlV5oy0GcPjxDq5F-571" value="vat_condition" style="shape=partialRectangle;top=0;left=0;right=0;bottom=0;align=left;verticalAlign=top;spacingTop=-2;fillColor=none;spacingLeft=64;spacingRight=4;overflow=hidden;rotatable=0;points=[[0,0.5],[1,0.5]];portConstraint=eastwest;dropTarget=0;" parent="in_tTlV5oy0GcPjxDq5F-566" vertex="1">
          <mxGeometry y="78" width="160" height="26" as="geometry" />
        </mxCell>
        <mxCell id="in_tTlV5oy0GcPjxDq5F-572" value="" style="shape=partialRectangle;top=0;left=0;bottom=0;fillColor=none;align=left;verticalAlign=middle;spacingLeft=4;spacingRight=4;overflow=hidden;rotatable=180;points=[];portConstraint=eastwest;part=1;" parent="in_tTlV5oy0GcPjxDq5F-571" vertex="1" connectable="0">
          <mxGeometry width="54" height="26" as="geometry" />
        </mxCell>
        <mxCell id="in_tTlV5oy0GcPjxDq5F-573" value="products" style="swimlane;fontStyle=0;childLayout=stackLayout;horizontal=1;startSize=26;fillColor=#cdeb8b;horizontalStack=0;resizeParent=1;resizeLast=0;collapsible=1;marginBottom=0;swimlaneFillColor=default;align=center;strokeColor=#36393d;" parent="1" vertex="1">
          <mxGeometry x="69.89" y="376" width="200" height="234" as="geometry" />
        </mxCell>
        <mxCell id="in_tTlV5oy0GcPjxDq5F-574" value="id" style="shape=partialRectangle;top=0;left=0;right=0;bottom=0;align=left;verticalAlign=top;spacingTop=-2;fillColor=none;spacingLeft=64;spacingRight=4;overflow=hidden;rotatable=0;points=[[0,0.5],[1,0.5]];portConstraint=eastwest;dropTarget=0;" parent="in_tTlV5oy0GcPjxDq5F-573" vertex="1">
          <mxGeometry y="26" width="200" height="26" as="geometry" />
        </mxCell>
        <mxCell id="in_tTlV5oy0GcPjxDq5F-575" value="PK" style="shape=partialRectangle;top=0;left=0;bottom=0;fillColor=none;align=left;verticalAlign=middle;spacingLeft=4;spacingRight=4;overflow=hidden;rotatable=180;points=[];portConstraint=eastwest;part=1;" parent="in_tTlV5oy0GcPjxDq5F-574" vertex="1" connectable="0">
          <mxGeometry width="54" height="26" as="geometry" />
        </mxCell>
        <mxCell id="in_tTlV5oy0GcPjxDq5F-576" value="sku" style="shape=partialRectangle;top=0;left=0;right=0;bottom=0;align=left;verticalAlign=top;spacingTop=-2;fillColor=none;spacingLeft=64;spacingRight=4;overflow=hidden;rotatable=0;points=[[0,0.5],[1,0.5]];portConstraint=eastwest;dropTarget=0;" parent="in_tTlV5oy0GcPjxDq5F-573" vertex="1">
          <mxGeometry y="52" width="200" height="26" as="geometry" />
        </mxCell>
        <mxCell id="in_tTlV5oy0GcPjxDq5F-577" value="" style="shape=partialRectangle;top=0;left=0;bottom=0;fillColor=none;align=left;verticalAlign=middle;spacingLeft=4;spacingRight=4;overflow=hidden;rotatable=180;points=[];portConstraint=eastwest;part=1;" parent="in_tTlV5oy0GcPjxDq5F-576" vertex="1" connectable="0">
          <mxGeometry width="54" height="26" as="geometry" />
        </mxCell>
        <mxCell id="in_tTlV5oy0GcPjxDq5F-578" value="name" style="shape=partialRectangle;top=0;left=0;right=0;bottom=0;align=left;verticalAlign=top;spacingTop=-2;fillColor=none;spacingLeft=64;spacingRight=4;overflow=hidden;rotatable=0;points=[[0,0.5],[1,0.5]];portConstraint=eastwest;dropTarget=0;" parent="in_tTlV5oy0GcPjxDq5F-573" vertex="1">
          <mxGeometry y="78" width="200" height="26" as="geometry" />
        </mxCell>
        <mxCell id="in_tTlV5oy0GcPjxDq5F-579" value="" style="shape=partialRectangle;top=0;left=0;bottom=0;fillColor=none;align=left;verticalAlign=middle;spacingLeft=4;spacingRight=4;overflow=hidden;rotatable=180;points=[];portConstraint=eastwest;part=1;" parent="in_tTlV5oy0GcPjxDq5F-578" vertex="1" connectable="0">
          <mxGeometry width="54" height="26" as="geometry" />
        </mxCell>
        <mxCell id="in_tTlV5oy0GcPjxDq5F-580" value="description" style="shape=partialRectangle;top=0;left=0;right=0;bottom=0;align=left;verticalAlign=top;spacingTop=-2;fillColor=none;spacingLeft=64;spacingRight=4;overflow=hidden;rotatable=0;points=[[0,0.5],[1,0.5]];portConstraint=eastwest;dropTarget=0;" parent="in_tTlV5oy0GcPjxDq5F-573" vertex="1">
          <mxGeometry y="104" width="200" height="26" as="geometry" />
        </mxCell>
        <mxCell id="in_tTlV5oy0GcPjxDq5F-581" value="" style="shape=partialRectangle;top=0;left=0;bottom=0;fillColor=none;align=left;verticalAlign=middle;spacingLeft=4;spacingRight=4;overflow=hidden;rotatable=180;points=[];portConstraint=eastwest;part=1;" parent="in_tTlV5oy0GcPjxDq5F-580" vertex="1" connectable="0">
          <mxGeometry width="54" height="26" as="geometry" />
        </mxCell>
        <mxCell id="in_tTlV5oy0GcPjxDq5F-582" value="price" style="shape=partialRectangle;top=0;left=0;right=0;bottom=0;align=left;verticalAlign=top;spacingTop=-2;fillColor=none;spacingLeft=64;spacingRight=4;overflow=hidden;rotatable=0;points=[[0,0.5],[1,0.5]];portConstraint=eastwest;dropTarget=0;" parent="in_tTlV5oy0GcPjxDq5F-573" vertex="1">
          <mxGeometry y="130" width="200" height="26" as="geometry" />
        </mxCell>
        <mxCell id="in_tTlV5oy0GcPjxDq5F-583" value="" style="shape=partialRectangle;top=0;left=0;bottom=0;fillColor=none;align=left;verticalAlign=middle;spacingLeft=4;spacingRight=4;overflow=hidden;rotatable=180;points=[];portConstraint=eastwest;part=1;" parent="in_tTlV5oy0GcPjxDq5F-582" vertex="1" connectable="0">
          <mxGeometry width="54" height="26" as="geometry" />
        </mxCell>
        <mxCell id="in_tTlV5oy0GcPjxDq5F-584" value="category_id" style="shape=partialRectangle;top=0;left=0;right=0;bottom=0;align=left;verticalAlign=top;spacingTop=-2;fillColor=none;spacingLeft=64;spacingRight=4;overflow=hidden;rotatable=0;points=[[0,0.5],[1,0.5]];portConstraint=eastwest;dropTarget=0;" parent="in_tTlV5oy0GcPjxDq5F-573" vertex="1">
          <mxGeometry y="156" width="200" height="26" as="geometry" />
        </mxCell>
        <mxCell id="in_tTlV5oy0GcPjxDq5F-585" value="FK" style="shape=partialRectangle;top=0;left=0;bottom=0;fillColor=none;align=left;verticalAlign=middle;spacingLeft=4;spacingRight=4;overflow=hidden;rotatable=180;points=[];portConstraint=eastwest;part=1;" parent="in_tTlV5oy0GcPjxDq5F-584" vertex="1" connectable="0">
          <mxGeometry width="54" height="26" as="geometry" />
        </mxCell>
        <mxCell id="in_tTlV5oy0GcPjxDq5F-586" value="supplier_id" style="shape=partialRectangle;top=0;left=0;right=0;bottom=0;align=left;verticalAlign=top;spacingTop=-2;fillColor=none;spacingLeft=64;spacingRight=4;overflow=hidden;rotatable=0;points=[[0,0.5],[1,0.5]];portConstraint=eastwest;dropTarget=0;" parent="in_tTlV5oy0GcPjxDq5F-573" vertex="1">
          <mxGeometry y="182" width="200" height="26" as="geometry" />
        </mxCell>
        <mxCell id="in_tTlV5oy0GcPjxDq5F-587" value="FK" style="shape=partialRectangle;top=0;left=0;bottom=0;fillColor=none;align=left;verticalAlign=middle;spacingLeft=4;spacingRight=4;overflow=hidden;rotatable=180;points=[];portConstraint=eastwest;part=1;" parent="in_tTlV5oy0GcPjxDq5F-586" vertex="1" connectable="0">
          <mxGeometry width="54" height="26" as="geometry" />
        </mxCell>
        <mxCell id="in_tTlV5oy0GcPjxDq5F-588" value="is_deleted" style="shape=partialRectangle;top=0;left=0;right=0;bottom=0;align=left;verticalAlign=top;spacingTop=-2;fillColor=none;spacingLeft=64;spacingRight=4;overflow=hidden;rotatable=0;points=[[0,0.5],[1,0.5]];portConstraint=eastwest;dropTarget=0;" parent="in_tTlV5oy0GcPjxDq5F-573" vertex="1">
          <mxGeometry y="208" width="200" height="26" as="geometry" />
        </mxCell>
        <mxCell id="in_tTlV5oy0GcPjxDq5F-589" value="" style="shape=partialRectangle;top=0;left=0;bottom=0;fillColor=none;align=left;verticalAlign=middle;spacingLeft=4;spacingRight=4;overflow=hidden;rotatable=180;points=[];portConstraint=eastwest;part=1;" parent="in_tTlV5oy0GcPjxDq5F-588" vertex="1" connectable="0">
          <mxGeometry width="54" height="26" as="geometry" />
        </mxCell>
        <mxCell id="in_tTlV5oy0GcPjxDq5F-590" value="categories" style="swimlane;fontStyle=0;childLayout=stackLayout;horizontal=1;startSize=26;fillColor=#cdeb8b;horizontalStack=0;resizeParent=1;resizeLast=0;collapsible=1;marginBottom=0;swimlaneFillColor=default;align=center;strokeColor=#36393d;" parent="1" vertex="1">
          <mxGeometry x="309.89" y="610" width="160" height="80" as="geometry" />
        </mxCell>
        <mxCell id="in_tTlV5oy0GcPjxDq5F-591" value="id" style="shape=partialRectangle;top=0;left=0;right=0;bottom=0;align=left;verticalAlign=top;spacingTop=-2;fillColor=none;spacingLeft=64;spacingRight=4;overflow=hidden;rotatable=0;points=[[0,0.5],[1,0.5]];portConstraint=eastwest;dropTarget=0;" parent="in_tTlV5oy0GcPjxDq5F-590" vertex="1">
          <mxGeometry y="26" width="160" height="26" as="geometry" />
        </mxCell>
        <mxCell id="in_tTlV5oy0GcPjxDq5F-592" value="PK" style="shape=partialRectangle;top=0;left=0;bottom=0;fillColor=none;align=left;verticalAlign=middle;spacingLeft=4;spacingRight=4;overflow=hidden;rotatable=180;points=[];portConstraint=eastwest;part=1;" parent="in_tTlV5oy0GcPjxDq5F-591" vertex="1" connectable="0">
          <mxGeometry width="54" height="26" as="geometry" />
        </mxCell>
        <mxCell id="in_tTlV5oy0GcPjxDq5F-593" value="name" style="shape=partialRectangle;top=0;left=0;right=0;bottom=0;align=left;verticalAlign=top;spacingTop=-2;fillColor=none;spacingLeft=64;spacingRight=4;overflow=hidden;rotatable=0;points=[[0,0.5],[1,0.5]];portConstraint=eastwest;dropTarget=0;" parent="in_tTlV5oy0GcPjxDq5F-590" vertex="1">
          <mxGeometry y="52" width="160" height="26" as="geometry" />
        </mxCell>
        <mxCell id="in_tTlV5oy0GcPjxDq5F-594" value="" style="shape=partialRectangle;top=0;left=0;bottom=0;fillColor=none;align=left;verticalAlign=middle;spacingLeft=4;spacingRight=4;overflow=hidden;rotatable=180;points=[];portConstraint=eastwest;part=1;" parent="in_tTlV5oy0GcPjxDq5F-593" vertex="1" connectable="0">
          <mxGeometry width="54" height="26" as="geometry" />
        </mxCell>
        <mxCell id="in_tTlV5oy0GcPjxDq5F-595" value="orders" style="swimlane;fontStyle=0;childLayout=stackLayout;horizontal=1;startSize=26;fillColor=#ffff88;horizontalStack=0;resizeParent=1;resizeLast=0;collapsible=1;marginBottom=0;swimlaneFillColor=default;align=center;strokeColor=#36393d;" parent="1" vertex="1">
          <mxGeometry x="69.89" y="642" width="200" height="208" as="geometry" />
        </mxCell>
        <mxCell id="in_tTlV5oy0GcPjxDq5F-596" value="id" style="shape=partialRectangle;top=0;left=0;right=0;bottom=0;align=left;verticalAlign=top;spacingTop=-2;fillColor=none;spacingLeft=64;spacingRight=4;overflow=hidden;rotatable=0;points=[[0,0.5],[1,0.5]];portConstraint=eastwest;dropTarget=0;" parent="in_tTlV5oy0GcPjxDq5F-595" vertex="1">
          <mxGeometry y="26" width="200" height="26" as="geometry" />
        </mxCell>
        <mxCell id="in_tTlV5oy0GcPjxDq5F-597" value="PK" style="shape=partialRectangle;top=0;left=0;bottom=0;fillColor=none;align=left;verticalAlign=middle;spacingLeft=4;spacingRight=4;overflow=hidden;rotatable=180;points=[];portConstraint=eastwest;part=1;" parent="in_tTlV5oy0GcPjxDq5F-596" vertex="1" connectable="0">
          <mxGeometry width="54" height="26" as="geometry" />
        </mxCell>
        <mxCell id="in_tTlV5oy0GcPjxDq5F-598" value="issue_date" style="shape=partialRectangle;top=0;left=0;right=0;bottom=0;align=left;verticalAlign=top;spacingTop=-2;fillColor=none;spacingLeft=64;spacingRight=4;overflow=hidden;rotatable=0;points=[[0,0.5],[1,0.5]];portConstraint=eastwest;dropTarget=0;" parent="in_tTlV5oy0GcPjxDq5F-595" vertex="1">
          <mxGeometry y="52" width="200" height="26" as="geometry" />
        </mxCell>
        <mxCell id="in_tTlV5oy0GcPjxDq5F-599" value="" style="shape=partialRectangle;top=0;left=0;bottom=0;fillColor=none;align=left;verticalAlign=middle;spacingLeft=4;spacingRight=4;overflow=hidden;rotatable=180;points=[];portConstraint=eastwest;part=1;" parent="in_tTlV5oy0GcPjxDq5F-598" vertex="1" connectable="0">
          <mxGeometry width="54" height="26" as="geometry" />
        </mxCell>
        <mxCell id="in_tTlV5oy0GcPjxDq5F-600" value="delivery_date" style="shape=partialRectangle;top=0;left=0;right=0;bottom=0;align=left;verticalAlign=top;spacingTop=-2;fillColor=none;spacingLeft=64;spacingRight=4;overflow=hidden;rotatable=0;points=[[0,0.5],[1,0.5]];portConstraint=eastwest;dropTarget=0;" parent="in_tTlV5oy0GcPjxDq5F-595" vertex="1">
          <mxGeometry y="78" width="200" height="26" as="geometry" />
        </mxCell>
        <mxCell id="in_tTlV5oy0GcPjxDq5F-601" value="" style="shape=partialRectangle;top=0;left=0;bottom=0;fillColor=none;align=left;verticalAlign=middle;spacingLeft=4;spacingRight=4;overflow=hidden;rotatable=180;points=[];portConstraint=eastwest;part=1;" parent="in_tTlV5oy0GcPjxDq5F-600" vertex="1" connectable="0">
          <mxGeometry width="54" height="26" as="geometry" />
        </mxCell>
        <mxCell id="in_tTlV5oy0GcPjxDq5F-602" value="comments" style="shape=partialRectangle;top=0;left=0;right=0;bottom=0;align=left;verticalAlign=top;spacingTop=-2;fillColor=none;spacingLeft=64;spacingRight=4;overflow=hidden;rotatable=0;points=[[0,0.5],[1,0.5]];portConstraint=eastwest;dropTarget=0;" parent="in_tTlV5oy0GcPjxDq5F-595" vertex="1">
          <mxGeometry y="104" width="200" height="26" as="geometry" />
        </mxCell>
        <mxCell id="in_tTlV5oy0GcPjxDq5F-603" value="" style="shape=partialRectangle;top=0;left=0;bottom=0;fillColor=none;align=left;verticalAlign=middle;spacingLeft=4;spacingRight=4;overflow=hidden;rotatable=180;points=[];portConstraint=eastwest;part=1;" parent="in_tTlV5oy0GcPjxDq5F-602" vertex="1" connectable="0">
          <mxGeometry width="54" height="26" as="geometry" />
        </mxCell>
        <mxCell id="in_tTlV5oy0GcPjxDq5F-606" value="status_id" style="shape=partialRectangle;top=0;left=0;right=0;bottom=0;align=left;verticalAlign=top;spacingTop=-2;fillColor=none;spacingLeft=64;spacingRight=4;overflow=hidden;rotatable=0;points=[[0,0.5],[1,0.5]];portConstraint=eastwest;dropTarget=0;" parent="in_tTlV5oy0GcPjxDq5F-595" vertex="1">
          <mxGeometry y="130" width="200" height="26" as="geometry" />
        </mxCell>
        <mxCell id="in_tTlV5oy0GcPjxDq5F-607" value="FK" style="shape=partialRectangle;top=0;left=0;bottom=0;fillColor=none;align=left;verticalAlign=middle;spacingLeft=4;spacingRight=4;overflow=hidden;rotatable=180;points=[];portConstraint=eastwest;part=1;" parent="in_tTlV5oy0GcPjxDq5F-606" vertex="1" connectable="0">
          <mxGeometry width="54" height="26" as="geometry" />
        </mxCell>
        <mxCell id="in_tTlV5oy0GcPjxDq5F-608" value="supplier_id" style="shape=partialRectangle;top=0;left=0;right=0;bottom=0;align=left;verticalAlign=top;spacingTop=-2;fillColor=none;spacingLeft=64;spacingRight=4;overflow=hidden;rotatable=0;points=[[0,0.5],[1,0.5]];portConstraint=eastwest;dropTarget=0;" parent="in_tTlV5oy0GcPjxDq5F-595" vertex="1">
          <mxGeometry y="156" width="200" height="26" as="geometry" />
        </mxCell>
        <mxCell id="in_tTlV5oy0GcPjxDq5F-609" value="FK" style="shape=partialRectangle;top=0;left=0;bottom=0;fillColor=none;align=left;verticalAlign=middle;spacingLeft=4;spacingRight=4;overflow=hidden;rotatable=180;points=[];portConstraint=eastwest;part=1;" parent="in_tTlV5oy0GcPjxDq5F-608" vertex="1" connectable="0">
          <mxGeometry width="54" height="26" as="geometry" />
        </mxCell>
        <mxCell id="in_tTlV5oy0GcPjxDq5F-610" value="is_deleted" style="shape=partialRectangle;top=0;left=0;right=0;bottom=0;align=left;verticalAlign=top;spacingTop=-2;fillColor=none;spacingLeft=64;spacingRight=4;overflow=hidden;rotatable=0;points=[[0,0.5],[1,0.5]];portConstraint=eastwest;dropTarget=0;" parent="in_tTlV5oy0GcPjxDq5F-595" vertex="1">
          <mxGeometry y="182" width="200" height="26" as="geometry" />
        </mxCell>
        <mxCell id="in_tTlV5oy0GcPjxDq5F-611" value="" style="shape=partialRectangle;top=0;left=0;bottom=0;fillColor=none;align=left;verticalAlign=middle;spacingLeft=4;spacingRight=4;overflow=hidden;rotatable=180;points=[];portConstraint=eastwest;part=1;" parent="in_tTlV5oy0GcPjxDq5F-610" vertex="1" connectable="0">
          <mxGeometry width="54" height="26" as="geometry" />
        </mxCell>
        <mxCell id="in_tTlV5oy0GcPjxDq5F-612" value="statuses" style="swimlane;fontStyle=0;childLayout=stackLayout;horizontal=1;startSize=26;fillColor=#ffff88;horizontalStack=0;resizeParent=1;resizeLast=0;collapsible=1;marginBottom=0;swimlaneFillColor=default;align=center;strokeColor=#36393d;" parent="1" vertex="1">
          <mxGeometry x="309.89" y="890" width="158" height="78" as="geometry" />
        </mxCell>
        <mxCell id="in_tTlV5oy0GcPjxDq5F-613" value="id" style="shape=partialRectangle;top=0;left=0;right=0;bottom=0;align=left;verticalAlign=top;spacingTop=-2;fillColor=none;spacingLeft=64;spacingRight=4;overflow=hidden;rotatable=0;points=[[0,0.5],[1,0.5]];portConstraint=eastwest;dropTarget=0;" parent="in_tTlV5oy0GcPjxDq5F-612" vertex="1">
          <mxGeometry y="26" width="158" height="26" as="geometry" />
        </mxCell>
        <mxCell id="in_tTlV5oy0GcPjxDq5F-614" value="PK" style="shape=partialRectangle;top=0;left=0;bottom=0;fillColor=none;align=left;verticalAlign=middle;spacingLeft=4;spacingRight=4;overflow=hidden;rotatable=180;points=[];portConstraint=eastwest;part=1;" parent="in_tTlV5oy0GcPjxDq5F-613" vertex="1" connectable="0">
          <mxGeometry width="54" height="26" as="geometry" />
        </mxCell>
        <mxCell id="in_tTlV5oy0GcPjxDq5F-615" value="name" style="shape=partialRectangle;top=0;left=0;right=0;bottom=0;align=left;verticalAlign=top;spacingTop=-2;fillColor=none;spacingLeft=64;spacingRight=4;overflow=hidden;rotatable=0;points=[[0,0.5],[1,0.5]];portConstraint=eastwest;dropTarget=0;" parent="in_tTlV5oy0GcPjxDq5F-612" vertex="1">
          <mxGeometry y="52" width="158" height="26" as="geometry" />
        </mxCell>
        <mxCell id="in_tTlV5oy0GcPjxDq5F-616" value="" style="shape=partialRectangle;top=0;left=0;bottom=0;fillColor=none;align=left;verticalAlign=middle;spacingLeft=4;spacingRight=4;overflow=hidden;rotatable=180;points=[];portConstraint=eastwest;part=1;" parent="in_tTlV5oy0GcPjxDq5F-615" vertex="1" connectable="0">
          <mxGeometry width="54" height="26" as="geometry" />
        </mxCell>
        <mxCell id="in_tTlV5oy0GcPjxDq5F-617" value="order_details" style="swimlane;fontStyle=0;childLayout=stackLayout;horizontal=1;startSize=26;fillColor=#ffff88;horizontalStack=0;resizeParent=1;resizeLast=0;collapsible=1;marginBottom=0;swimlaneFillColor=default;align=center;strokeColor=#36393d;" parent="1" vertex="1">
          <mxGeometry x="309.89" y="710" width="163" height="156" as="geometry" />
        </mxCell>
        <mxCell id="in_tTlV5oy0GcPjxDq5F-618" value="id" style="shape=partialRectangle;top=0;left=0;right=0;bottom=0;align=left;verticalAlign=top;spacingTop=-2;fillColor=none;spacingLeft=64;spacingRight=4;overflow=hidden;rotatable=0;points=[[0,0.5],[1,0.5]];portConstraint=eastwest;dropTarget=0;" parent="in_tTlV5oy0GcPjxDq5F-617" vertex="1">
          <mxGeometry y="26" width="163" height="26" as="geometry" />
        </mxCell>
        <mxCell id="in_tTlV5oy0GcPjxDq5F-619" value="PK" style="shape=partialRectangle;top=0;left=0;bottom=0;fillColor=none;align=left;verticalAlign=middle;spacingLeft=4;spacingRight=4;overflow=hidden;rotatable=180;points=[];portConstraint=eastwest;part=1;" parent="in_tTlV5oy0GcPjxDq5F-618" vertex="1" connectable="0">
          <mxGeometry width="54" height="26" as="geometry" />
        </mxCell>
        <mxCell id="in_tTlV5oy0GcPjxDq5F-620" value="order_id" style="shape=partialRectangle;top=0;left=0;right=0;bottom=0;align=left;verticalAlign=top;spacingTop=-2;fillColor=none;spacingLeft=64;spacingRight=4;overflow=hidden;rotatable=0;points=[[0,0.5],[1,0.5]];portConstraint=eastwest;dropTarget=0;" parent="in_tTlV5oy0GcPjxDq5F-617" vertex="1">
          <mxGeometry y="52" width="163" height="26" as="geometry" />
        </mxCell>
        <mxCell id="in_tTlV5oy0GcPjxDq5F-621" value="FK" style="shape=partialRectangle;top=0;left=0;bottom=0;fillColor=none;align=left;verticalAlign=middle;spacingLeft=4;spacingRight=4;overflow=hidden;rotatable=180;points=[];portConstraint=eastwest;part=1;" parent="in_tTlV5oy0GcPjxDq5F-620" vertex="1" connectable="0">
          <mxGeometry width="54" height="26" as="geometry" />
        </mxCell>
        <mxCell id="in_tTlV5oy0GcPjxDq5F-622" value="product_id" style="shape=partialRectangle;top=0;left=0;right=0;bottom=0;align=left;verticalAlign=top;spacingTop=-2;fillColor=none;spacingLeft=64;spacingRight=4;overflow=hidden;rotatable=0;points=[[0,0.5],[1,0.5]];portConstraint=eastwest;dropTarget=0;" parent="in_tTlV5oy0GcPjxDq5F-617" vertex="1">
          <mxGeometry y="78" width="163" height="26" as="geometry" />
        </mxCell>
        <mxCell id="in_tTlV5oy0GcPjxDq5F-623" value="FK" style="shape=partialRectangle;top=0;left=0;bottom=0;fillColor=none;align=left;verticalAlign=middle;spacingLeft=4;spacingRight=4;overflow=hidden;rotatable=180;points=[];portConstraint=eastwest;part=1;" parent="in_tTlV5oy0GcPjxDq5F-622" vertex="1" connectable="0">
          <mxGeometry width="54" height="26" as="geometry" />
        </mxCell>
        <mxCell id="in_tTlV5oy0GcPjxDq5F-624" value="quantity" style="shape=partialRectangle;top=0;left=0;right=0;bottom=0;align=left;verticalAlign=top;spacingTop=-2;fillColor=none;spacingLeft=64;spacingRight=4;overflow=hidden;rotatable=0;points=[[0,0.5],[1,0.5]];portConstraint=eastwest;dropTarget=0;" parent="in_tTlV5oy0GcPjxDq5F-617" vertex="1">
          <mxGeometry y="104" width="163" height="26" as="geometry" />
        </mxCell>
        <mxCell id="in_tTlV5oy0GcPjxDq5F-625" value="" style="shape=partialRectangle;top=0;left=0;bottom=0;fillColor=none;align=left;verticalAlign=middle;spacingLeft=4;spacingRight=4;overflow=hidden;rotatable=180;points=[];portConstraint=eastwest;part=1;" parent="in_tTlV5oy0GcPjxDq5F-624" vertex="1" connectable="0">
          <mxGeometry width="54" height="26" as="geometry" />
        </mxCell>
        <mxCell id="in_tTlV5oy0GcPjxDq5F-626" value="price" style="shape=partialRectangle;top=0;left=0;right=0;bottom=0;align=left;verticalAlign=top;spacingTop=-2;fillColor=none;spacingLeft=64;spacingRight=4;overflow=hidden;rotatable=0;points=[[0,0.5],[1,0.5]];portConstraint=eastwest;dropTarget=0;" parent="in_tTlV5oy0GcPjxDq5F-617" vertex="1">
          <mxGeometry y="130" width="163" height="26" as="geometry" />
        </mxCell>
        <mxCell id="in_tTlV5oy0GcPjxDq5F-627" value="" style="shape=partialRectangle;top=0;left=0;bottom=0;fillColor=none;align=left;verticalAlign=middle;spacingLeft=4;spacingRight=4;overflow=hidden;rotatable=180;points=[];portConstraint=eastwest;part=1;" parent="in_tTlV5oy0GcPjxDq5F-626" vertex="1" connectable="0">
          <mxGeometry width="54" height="26" as="geometry" />
        </mxCell>
        <mxCell id="in_tTlV5oy0GcPjxDq5F-628" value="users" style="swimlane;fontStyle=0;childLayout=stackLayout;horizontal=1;startSize=26;fillColor=#ffcc99;horizontalStack=0;resizeParent=1;resizeLast=0;collapsible=1;marginBottom=0;swimlaneFillColor=default;align=center;strokeColor=#36393d;" parent="1" vertex="1">
          <mxGeometry x="509.89" y="320" width="160" height="286" as="geometry" />
        </mxCell>
        <mxCell id="in_tTlV5oy0GcPjxDq5F-629" value="id" style="shape=partialRectangle;top=0;left=0;right=0;bottom=0;align=left;verticalAlign=top;spacingTop=-2;fillColor=none;spacingLeft=64;spacingRight=4;overflow=hidden;rotatable=0;points=[[0,0.5],[1,0.5]];portConstraint=eastwest;dropTarget=0;" parent="in_tTlV5oy0GcPjxDq5F-628" vertex="1">
          <mxGeometry y="26" width="160" height="26" as="geometry" />
        </mxCell>
        <mxCell id="in_tTlV5oy0GcPjxDq5F-630" value="PK" style="shape=partialRectangle;top=0;left=0;bottom=0;fillColor=none;align=left;verticalAlign=middle;spacingLeft=4;spacingRight=4;overflow=hidden;rotatable=180;points=[];portConstraint=eastwest;part=1;" parent="in_tTlV5oy0GcPjxDq5F-629" vertex="1" connectable="0">
          <mxGeometry width="54" height="26" as="geometry" />
        </mxCell>
        <mxCell id="in_tTlV5oy0GcPjxDq5F-631" value="first_name" style="shape=partialRectangle;top=0;left=0;right=0;bottom=0;align=left;verticalAlign=top;spacingTop=-2;fillColor=none;spacingLeft=64;spacingRight=4;overflow=hidden;rotatable=0;points=[[0,0.5],[1,0.5]];portConstraint=eastwest;dropTarget=0;" parent="in_tTlV5oy0GcPjxDq5F-628" vertex="1">
          <mxGeometry y="52" width="160" height="26" as="geometry" />
        </mxCell>
        <mxCell id="in_tTlV5oy0GcPjxDq5F-632" value="" style="shape=partialRectangle;top=0;left=0;bottom=0;fillColor=none;align=left;verticalAlign=middle;spacingLeft=4;spacingRight=4;overflow=hidden;rotatable=180;points=[];portConstraint=eastwest;part=1;" parent="in_tTlV5oy0GcPjxDq5F-631" vertex="1" connectable="0">
          <mxGeometry width="54" height="26" as="geometry" />
        </mxCell>
        <mxCell id="in_tTlV5oy0GcPjxDq5F-633" value="last_name" style="shape=partialRectangle;top=0;left=0;right=0;bottom=0;align=left;verticalAlign=top;spacingTop=-2;fillColor=none;spacingLeft=64;spacingRight=4;overflow=hidden;rotatable=0;points=[[0,0.5],[1,0.5]];portConstraint=eastwest;dropTarget=0;" parent="in_tTlV5oy0GcPjxDq5F-628" vertex="1">
          <mxGeometry y="78" width="160" height="26" as="geometry" />
        </mxCell>
        <mxCell id="in_tTlV5oy0GcPjxDq5F-634" value="" style="shape=partialRectangle;top=0;left=0;bottom=0;fillColor=none;align=left;verticalAlign=middle;spacingLeft=4;spacingRight=4;overflow=hidden;rotatable=180;points=[];portConstraint=eastwest;part=1;" parent="in_tTlV5oy0GcPjxDq5F-633" vertex="1" connectable="0">
          <mxGeometry width="54" height="26" as="geometry" />
        </mxCell>
        <mxCell id="in_tTlV5oy0GcPjxDq5F-635" value="dni" style="shape=partialRectangle;top=0;left=0;right=0;bottom=0;align=left;verticalAlign=top;spacingTop=-2;fillColor=none;spacingLeft=64;spacingRight=4;overflow=hidden;rotatable=0;points=[[0,0.5],[1,0.5]];portConstraint=eastwest;dropTarget=0;" parent="in_tTlV5oy0GcPjxDq5F-628" vertex="1">
          <mxGeometry y="104" width="160" height="26" as="geometry" />
        </mxCell>
        <mxCell id="in_tTlV5oy0GcPjxDq5F-636" value="" style="shape=partialRectangle;top=0;left=0;bottom=0;fillColor=none;align=left;verticalAlign=middle;spacingLeft=4;spacingRight=4;overflow=hidden;rotatable=180;points=[];portConstraint=eastwest;part=1;" parent="in_tTlV5oy0GcPjxDq5F-635" vertex="1" connectable="0">
          <mxGeometry width="54" height="26" as="geometry" />
        </mxCell>
        <mxCell id="in_tTlV5oy0GcPjxDq5F-637" value="email" style="shape=partialRectangle;top=0;left=0;right=0;bottom=0;align=left;verticalAlign=top;spacingTop=-2;fillColor=none;spacingLeft=64;spacingRight=4;overflow=hidden;rotatable=0;points=[[0,0.5],[1,0.5]];portConstraint=eastwest;dropTarget=0;" parent="in_tTlV5oy0GcPjxDq5F-628" vertex="1">
          <mxGeometry y="130" width="160" height="26" as="geometry" />
        </mxCell>
        <mxCell id="in_tTlV5oy0GcPjxDq5F-638" value="" style="shape=partialRectangle;top=0;left=0;bottom=0;fillColor=none;align=left;verticalAlign=middle;spacingLeft=4;spacingRight=4;overflow=hidden;rotatable=180;points=[];portConstraint=eastwest;part=1;" parent="in_tTlV5oy0GcPjxDq5F-637" vertex="1" connectable="0">
          <mxGeometry width="54" height="26" as="geometry" />
        </mxCell>
        <mxCell id="in_tTlV5oy0GcPjxDq5F-639" value="phone" style="shape=partialRectangle;top=0;left=0;right=0;bottom=0;align=left;verticalAlign=top;spacingTop=-2;fillColor=none;spacingLeft=64;spacingRight=4;overflow=hidden;rotatable=0;points=[[0,0.5],[1,0.5]];portConstraint=eastwest;dropTarget=0;" parent="in_tTlV5oy0GcPjxDq5F-628" vertex="1">
          <mxGeometry y="156" width="160" height="26" as="geometry" />
        </mxCell>
        <mxCell id="in_tTlV5oy0GcPjxDq5F-640" value="" style="shape=partialRectangle;top=0;left=0;bottom=0;fillColor=none;align=left;verticalAlign=middle;spacingLeft=4;spacingRight=4;overflow=hidden;rotatable=180;points=[];portConstraint=eastwest;part=1;" parent="in_tTlV5oy0GcPjxDq5F-639" vertex="1" connectable="0">
          <mxGeometry width="54" height="26" as="geometry" />
        </mxCell>
        <mxCell id="in_tTlV5oy0GcPjxDq5F-641" value="genre_id" style="shape=partialRectangle;top=0;left=0;right=0;bottom=0;align=left;verticalAlign=top;spacingTop=-2;fillColor=none;spacingLeft=64;spacingRight=4;overflow=hidden;rotatable=0;points=[[0,0.5],[1,0.5]];portConstraint=eastwest;dropTarget=0;" parent="in_tTlV5oy0GcPjxDq5F-628" vertex="1">
          <mxGeometry y="182" width="160" height="26" as="geometry" />
        </mxCell>
        <mxCell id="in_tTlV5oy0GcPjxDq5F-642" value="FK" style="shape=partialRectangle;top=0;left=0;bottom=0;fillColor=none;align=left;verticalAlign=middle;spacingLeft=4;spacingRight=4;overflow=hidden;rotatable=180;points=[];portConstraint=eastwest;part=1;" parent="in_tTlV5oy0GcPjxDq5F-641" vertex="1" connectable="0">
          <mxGeometry width="54" height="26" as="geometry" />
        </mxCell>
        <mxCell id="in_tTlV5oy0GcPjxDq5F-643" value="address_id" style="shape=partialRectangle;top=0;left=0;right=0;bottom=0;align=left;verticalAlign=top;spacingTop=-2;fillColor=none;spacingLeft=64;spacingRight=4;overflow=hidden;rotatable=0;points=[[0,0.5],[1,0.5]];portConstraint=eastwest;dropTarget=0;" parent="in_tTlV5oy0GcPjxDq5F-628" vertex="1">
          <mxGeometry y="208" width="160" height="26" as="geometry" />
        </mxCell>
        <mxCell id="in_tTlV5oy0GcPjxDq5F-644" value="FK" style="shape=partialRectangle;top=0;left=0;bottom=0;fillColor=none;align=left;verticalAlign=middle;spacingLeft=4;spacingRight=4;overflow=hidden;rotatable=180;points=[];portConstraint=eastwest;part=1;" parent="in_tTlV5oy0GcPjxDq5F-643" vertex="1" connectable="0">
          <mxGeometry width="54" height="26" as="geometry" />
        </mxCell>
        <mxCell id="in_tTlV5oy0GcPjxDq5F-681" value="role_id" style="shape=partialRectangle;top=0;left=0;right=0;bottom=0;align=left;verticalAlign=top;spacingTop=-2;fillColor=none;spacingLeft=64;spacingRight=4;overflow=hidden;rotatable=0;points=[[0,0.5],[1,0.5]];portConstraint=eastwest;dropTarget=0;" parent="in_tTlV5oy0GcPjxDq5F-628" vertex="1">
          <mxGeometry y="234" width="160" height="26" as="geometry" />
        </mxCell>
        <mxCell id="in_tTlV5oy0GcPjxDq5F-682" value="FK" style="shape=partialRectangle;top=0;left=0;bottom=0;fillColor=none;align=left;verticalAlign=middle;spacingLeft=4;spacingRight=4;overflow=hidden;rotatable=180;points=[];portConstraint=eastwest;part=1;" parent="in_tTlV5oy0GcPjxDq5F-681" vertex="1" connectable="0">
          <mxGeometry width="54" height="26" as="geometry" />
        </mxCell>
        <mxCell id="in_tTlV5oy0GcPjxDq5F-645" value="is_deleted" style="shape=partialRectangle;top=0;left=0;right=0;bottom=0;align=left;verticalAlign=top;spacingTop=-2;fillColor=none;spacingLeft=64;spacingRight=4;overflow=hidden;rotatable=0;points=[[0,0.5],[1,0.5]];portConstraint=eastwest;dropTarget=0;" parent="in_tTlV5oy0GcPjxDq5F-628" vertex="1">
          <mxGeometry y="260" width="160" height="26" as="geometry" />
        </mxCell>
        <mxCell id="in_tTlV5oy0GcPjxDq5F-646" value="" style="shape=partialRectangle;top=0;left=0;bottom=0;fillColor=none;align=left;verticalAlign=middle;spacingLeft=4;spacingRight=4;overflow=hidden;rotatable=180;points=[];portConstraint=eastwest;part=1;" parent="in_tTlV5oy0GcPjxDq5F-645" vertex="1" connectable="0">
          <mxGeometry width="54" height="26" as="geometry" />
        </mxCell>
        <mxCell id="in_tTlV5oy0GcPjxDq5F-647" value="genres" style="swimlane;fontStyle=0;childLayout=stackLayout;horizontal=1;startSize=26;fillColor=#ffcc99;horizontalStack=0;resizeParent=1;resizeLast=0;collapsible=1;marginBottom=0;swimlaneFillColor=default;align=center;strokeColor=#36393d;" parent="1" vertex="1">
          <mxGeometry x="709.89" y="440" width="155" height="78" as="geometry" />
        </mxCell>
        <mxCell id="in_tTlV5oy0GcPjxDq5F-648" value="id" style="shape=partialRectangle;top=0;left=0;right=0;bottom=0;align=left;verticalAlign=top;spacingTop=-2;fillColor=none;spacingLeft=64;spacingRight=4;overflow=hidden;rotatable=0;points=[[0,0.5],[1,0.5]];portConstraint=eastwest;dropTarget=0;" parent="in_tTlV5oy0GcPjxDq5F-647" vertex="1">
          <mxGeometry y="26" width="155" height="26" as="geometry" />
        </mxCell>
        <mxCell id="in_tTlV5oy0GcPjxDq5F-649" value="PK" style="shape=partialRectangle;top=0;left=0;bottom=0;fillColor=none;align=left;verticalAlign=middle;spacingLeft=4;spacingRight=4;overflow=hidden;rotatable=180;points=[];portConstraint=eastwest;part=1;" parent="in_tTlV5oy0GcPjxDq5F-648" vertex="1" connectable="0">
          <mxGeometry width="54" height="26" as="geometry" />
        </mxCell>
        <mxCell id="in_tTlV5oy0GcPjxDq5F-650" value="name" style="shape=partialRectangle;top=0;left=0;right=0;bottom=0;align=left;verticalAlign=top;spacingTop=-2;fillColor=none;spacingLeft=64;spacingRight=4;overflow=hidden;rotatable=0;points=[[0,0.5],[1,0.5]];portConstraint=eastwest;dropTarget=0;" parent="in_tTlV5oy0GcPjxDq5F-647" vertex="1">
          <mxGeometry y="52" width="155" height="26" as="geometry" />
        </mxCell>
        <mxCell id="in_tTlV5oy0GcPjxDq5F-651" value="" style="shape=partialRectangle;top=0;left=0;bottom=0;fillColor=none;align=left;verticalAlign=middle;spacingLeft=4;spacingRight=4;overflow=hidden;rotatable=180;points=[];portConstraint=eastwest;part=1;" parent="in_tTlV5oy0GcPjxDq5F-650" vertex="1" connectable="0">
          <mxGeometry width="54" height="26" as="geometry" />
        </mxCell>
        <mxCell id="in_tTlV5oy0GcPjxDq5F-652" value="user_credentials" style="swimlane;fontStyle=0;childLayout=stackLayout;horizontal=1;startSize=26;fillColor=#ffcc99;horizontalStack=0;resizeParent=1;resizeLast=0;collapsible=1;marginBottom=0;swimlaneFillColor=default;align=center;strokeColor=#36393d;" parent="1" vertex="1">
          <mxGeometry x="709.89" y="320" width="155" height="104" as="geometry" />
        </mxCell>
        <mxCell id="in_tTlV5oy0GcPjxDq5F-653" value="id" style="shape=partialRectangle;top=0;left=0;right=0;bottom=0;align=left;verticalAlign=top;spacingTop=-2;fillColor=none;spacingLeft=64;spacingRight=4;overflow=hidden;rotatable=0;points=[[0,0.5],[1,0.5]];portConstraint=eastwest;dropTarget=0;" parent="in_tTlV5oy0GcPjxDq5F-652" vertex="1">
          <mxGeometry y="26" width="155" height="26" as="geometry" />
        </mxCell>
        <mxCell id="in_tTlV5oy0GcPjxDq5F-654" value="PK" style="shape=partialRectangle;top=0;left=0;bottom=0;fillColor=none;align=left;verticalAlign=middle;spacingLeft=4;spacingRight=4;overflow=hidden;rotatable=180;points=[];portConstraint=eastwest;part=1;" parent="in_tTlV5oy0GcPjxDq5F-653" vertex="1" connectable="0">
          <mxGeometry width="54" height="26" as="geometry" />
        </mxCell>
        <mxCell id="in_tTlV5oy0GcPjxDq5F-655" value="user_id" style="shape=partialRectangle;top=0;left=0;right=0;bottom=0;align=left;verticalAlign=top;spacingTop=-2;fillColor=none;spacingLeft=64;spacingRight=4;overflow=hidden;rotatable=0;points=[[0,0.5],[1,0.5]];portConstraint=eastwest;dropTarget=0;" parent="in_tTlV5oy0GcPjxDq5F-652" vertex="1">
          <mxGeometry y="52" width="155" height="26" as="geometry" />
        </mxCell>
        <mxCell id="in_tTlV5oy0GcPjxDq5F-656" value="FK" style="shape=partialRectangle;top=0;left=0;bottom=0;fillColor=none;align=left;verticalAlign=middle;spacingLeft=4;spacingRight=4;overflow=hidden;rotatable=180;points=[];portConstraint=eastwest;part=1;" parent="in_tTlV5oy0GcPjxDq5F-655" vertex="1" connectable="0">
          <mxGeometry width="54" height="26" as="geometry" />
        </mxCell>
        <mxCell id="in_tTlV5oy0GcPjxDq5F-657" value="password_hash" style="shape=partialRectangle;top=0;left=0;right=0;bottom=0;align=left;verticalAlign=top;spacingTop=-2;fillColor=none;spacingLeft=64;spacingRight=4;overflow=hidden;rotatable=0;points=[[0,0.5],[1,0.5]];portConstraint=eastwest;dropTarget=0;" parent="in_tTlV5oy0GcPjxDq5F-652" vertex="1">
          <mxGeometry y="78" width="155" height="26" as="geometry" />
        </mxCell>
        <mxCell id="in_tTlV5oy0GcPjxDq5F-658" value="" style="shape=partialRectangle;top=0;left=0;bottom=0;fillColor=none;align=left;verticalAlign=middle;spacingLeft=4;spacingRight=4;overflow=hidden;rotatable=180;points=[];portConstraint=eastwest;part=1;" parent="in_tTlV5oy0GcPjxDq5F-657" vertex="1" connectable="0">
          <mxGeometry width="54" height="26" as="geometry" />
        </mxCell>
        <mxCell id="in_tTlV5oy0GcPjxDq5F-659" style="edgeStyle=orthogonalEdgeStyle;rounded=0;orthogonalLoop=1;jettySize=auto;html=1;exitX=1;exitY=0.5;exitDx=0;exitDy=0;endArrow=ERmandOne;endFill=0;startArrow=ERoneToMany;startFill=0;" parent="1" source="in_tTlV5oy0GcPjxDq5F-539" target="in_tTlV5oy0GcPjxDq5F-544" edge="1">
          <mxGeometry relative="1" as="geometry" />
        </mxCell>
        <mxCell id="in_tTlV5oy0GcPjxDq5F-661" style="edgeStyle=orthogonalEdgeStyle;rounded=0;orthogonalLoop=1;jettySize=auto;html=1;exitX=1;exitY=0.5;exitDx=0;exitDy=0;endArrow=ERmandOne;endFill=0;startArrow=ERmandOne;startFill=0;" parent="1" source="in_tTlV5oy0GcPjxDq5F-522" target="in_tTlV5oy0GcPjxDq5F-567" edge="1">
          <mxGeometry relative="1" as="geometry">
            <Array as="points">
              <mxPoint x="299.89" y="287" />
              <mxPoint x="299.89" y="313" />
            </Array>
          </mxGeometry>
        </mxCell>
        <mxCell id="in_tTlV5oy0GcPjxDq5F-662" style="edgeStyle=orthogonalEdgeStyle;rounded=0;orthogonalLoop=1;jettySize=auto;html=1;exitX=1;exitY=0.5;exitDx=0;exitDy=0;startArrow=ERmandOne;startFill=0;endArrow=ERmandOne;endFill=0;" parent="1" source="in_tTlV5oy0GcPjxDq5F-524" target="in_tTlV5oy0GcPjxDq5F-554" edge="1">
          <mxGeometry relative="1" as="geometry">
            <mxPoint x="199.89" y="480" as="targetPoint" />
            <Array as="points">
              <mxPoint x="289.89" y="313" />
              <mxPoint x="289.89" y="442" />
            </Array>
          </mxGeometry>
        </mxCell>
        <mxCell id="in_tTlV5oy0GcPjxDq5F-663" style="edgeStyle=orthogonalEdgeStyle;rounded=0;orthogonalLoop=1;jettySize=auto;html=1;exitX=1;exitY=0.5;exitDx=0;exitDy=0;entryX=0;entryY=0.5;entryDx=0;entryDy=0;startArrow=ERmandOne;startFill=0;endArrow=ERmandOne;endFill=0;" parent="1" source="in_tTlV5oy0GcPjxDq5F-520" target="in_tTlV5oy0GcPjxDq5F-529" edge="1">
          <mxGeometry relative="1" as="geometry" />
        </mxCell>
        <mxCell id="in_tTlV5oy0GcPjxDq5F-664" style="edgeStyle=orthogonalEdgeStyle;rounded=0;orthogonalLoop=1;jettySize=auto;html=1;exitX=0;exitY=0.5;exitDx=0;exitDy=0;entryX=0;entryY=0.5;entryDx=0;entryDy=0;endArrow=ERmandOne;endFill=0;startArrow=ERoneToMany;startFill=0;" parent="1" source="in_tTlV5oy0GcPjxDq5F-586" target="in_tTlV5oy0GcPjxDq5F-506" edge="1">
          <mxGeometry relative="1" as="geometry">
            <Array as="points">
              <mxPoint x="50" y="571" />
              <mxPoint x="50" y="79" />
            </Array>
          </mxGeometry>
        </mxCell>
        <mxCell id="in_tTlV5oy0GcPjxDq5F-665" style="edgeStyle=orthogonalEdgeStyle;rounded=0;orthogonalLoop=1;jettySize=auto;html=1;exitX=1;exitY=0.5;exitDx=0;exitDy=0;startArrow=ERoneToMany;startFill=0;endArrow=ERmandOne;endFill=0;" parent="1" source="in_tTlV5oy0GcPjxDq5F-584" target="in_tTlV5oy0GcPjxDq5F-591" edge="1">
          <mxGeometry relative="1" as="geometry" />
        </mxCell>
        <mxCell id="in_tTlV5oy0GcPjxDq5F-666" style="edgeStyle=orthogonalEdgeStyle;rounded=0;orthogonalLoop=1;jettySize=auto;html=1;exitX=0;exitY=0.5;exitDx=0;exitDy=0;entryX=0;entryY=0.5;entryDx=0;entryDy=0;endArrow=ERoneToMany;endFill=0;startArrow=ERmandOne;startFill=0;" parent="1" source="in_tTlV5oy0GcPjxDq5F-506" target="in_tTlV5oy0GcPjxDq5F-608" edge="1">
          <mxGeometry relative="1" as="geometry" />
        </mxCell>
        <mxCell id="in_tTlV5oy0GcPjxDq5F-667" style="edgeStyle=orthogonalEdgeStyle;rounded=0;orthogonalLoop=1;jettySize=auto;html=1;exitX=1;exitY=0.5;exitDx=0;exitDy=0;entryX=0;entryY=0.5;entryDx=0;entryDy=0;endArrow=ERmandOne;endFill=0;startArrow=ERoneToMany;startFill=0;" parent="1" source="in_tTlV5oy0GcPjxDq5F-606" target="in_tTlV5oy0GcPjxDq5F-613" edge="1">
          <mxGeometry relative="1" as="geometry">
            <Array as="points">
              <mxPoint x="290" y="785" />
              <mxPoint x="290" y="929" />
            </Array>
          </mxGeometry>
        </mxCell>
        <mxCell id="in_tTlV5oy0GcPjxDq5F-668" style="edgeStyle=orthogonalEdgeStyle;rounded=0;orthogonalLoop=1;jettySize=auto;html=1;exitX=0;exitY=0.5;exitDx=0;exitDy=0;endArrow=ERmandOne;endFill=0;startArrow=ERoneToMany;startFill=0;" parent="1" source="in_tTlV5oy0GcPjxDq5F-620" target="in_tTlV5oy0GcPjxDq5F-596" edge="1">
          <mxGeometry relative="1" as="geometry">
            <Array as="points">
              <mxPoint x="290" y="775" />
              <mxPoint x="290" y="681" />
            </Array>
          </mxGeometry>
        </mxCell>
        <mxCell id="in_tTlV5oy0GcPjxDq5F-669" style="edgeStyle=orthogonalEdgeStyle;rounded=0;orthogonalLoop=1;jettySize=auto;html=1;exitX=1;exitY=0.5;exitDx=0;exitDy=0;entryX=0;entryY=0.5;entryDx=0;entryDy=0;startArrow=ERoneToMany;startFill=0;endArrow=ERmandOne;endFill=0;" parent="1" source="in_tTlV5oy0GcPjxDq5F-641" target="in_tTlV5oy0GcPjxDq5F-648" edge="1">
          <mxGeometry relative="1" as="geometry" />
        </mxCell>
        <mxCell id="in_tTlV5oy0GcPjxDq5F-670" style="edgeStyle=orthogonalEdgeStyle;rounded=0;orthogonalLoop=1;jettySize=auto;html=1;exitX=1;exitY=0.5;exitDx=0;exitDy=0;entryX=0;entryY=0.5;entryDx=0;entryDy=0;startArrow=ERmandOne;startFill=0;endArrow=ERmandOne;endFill=0;" parent="1" source="in_tTlV5oy0GcPjxDq5F-629" target="in_tTlV5oy0GcPjxDq5F-655" edge="1">
          <mxGeometry relative="1" as="geometry" />
        </mxCell>
        <mxCell id="in_tTlV5oy0GcPjxDq5F-671" style="edgeStyle=orthogonalEdgeStyle;rounded=0;orthogonalLoop=1;jettySize=auto;html=1;entryX=1;entryY=0.5;entryDx=0;entryDy=0;endArrow=ERmandOne;endFill=0;startArrow=ERmandOne;startFill=0;" parent="1" source="in_tTlV5oy0GcPjxDq5F-643" target="in_tTlV5oy0GcPjxDq5F-529" edge="1">
          <mxGeometry relative="1" as="geometry">
            <mxPoint x="509.89" y="630" as="sourcePoint" />
            <Array as="points">
              <mxPoint x="490" y="540" />
              <mxPoint x="490" y="300" />
              <mxPoint x="710" y="300" />
              <mxPoint x="710" y="50" />
              <mxPoint x="490" y="50" />
              <mxPoint x="490" y="79" />
            </Array>
          </mxGeometry>
        </mxCell>
        <mxCell id="in_tTlV5oy0GcPjxDq5F-673" style="edgeStyle=orthogonalEdgeStyle;rounded=0;orthogonalLoop=1;jettySize=auto;html=1;exitX=0;exitY=0.5;exitDx=0;exitDy=0;entryX=1;entryY=0.5;entryDx=0;entryDy=0;endArrow=ERoneToMany;endFill=0;startArrow=ERmandOne;startFill=0;" parent="1" source="in_tTlV5oy0GcPjxDq5F-574" target="in_tTlV5oy0GcPjxDq5F-622" edge="1">
          <mxGeometry relative="1" as="geometry">
            <Array as="points">
              <mxPoint x="30" y="415" />
              <mxPoint x="30" y="1000" />
              <mxPoint x="492" y="1000" />
              <mxPoint x="492" y="801" />
            </Array>
          </mxGeometry>
        </mxCell>
        <mxCell id="in_tTlV5oy0GcPjxDq5F-683" value="roles" style="swimlane;fontStyle=0;childLayout=stackLayout;horizontal=1;startSize=26;fillColor=#ffcc99;horizontalStack=0;resizeParent=1;resizeLast=0;collapsible=1;marginBottom=0;swimlaneFillColor=default;align=center;strokeColor=#36393d;" parent="1" vertex="1">
          <mxGeometry x="709.89" y="540" width="155" height="78" as="geometry" />
        </mxCell>
        <mxCell id="in_tTlV5oy0GcPjxDq5F-684" value="id" style="shape=partialRectangle;top=0;left=0;right=0;bottom=0;align=left;verticalAlign=top;spacingTop=-2;fillColor=none;spacingLeft=64;spacingRight=4;overflow=hidden;rotatable=0;points=[[0,0.5],[1,0.5]];portConstraint=eastwest;dropTarget=0;" parent="in_tTlV5oy0GcPjxDq5F-683" vertex="1">
          <mxGeometry y="26" width="155" height="26" as="geometry" />
        </mxCell>
        <mxCell id="in_tTlV5oy0GcPjxDq5F-685" value="PK" style="shape=partialRectangle;top=0;left=0;bottom=0;fillColor=none;align=left;verticalAlign=middle;spacingLeft=4;spacingRight=4;overflow=hidden;rotatable=180;points=[];portConstraint=eastwest;part=1;" parent="in_tTlV5oy0GcPjxDq5F-684" vertex="1" connectable="0">
          <mxGeometry width="54" height="26" as="geometry" />
        </mxCell>
        <mxCell id="in_tTlV5oy0GcPjxDq5F-686" value="name" style="shape=partialRectangle;top=0;left=0;right=0;bottom=0;align=left;verticalAlign=top;spacingTop=-2;fillColor=none;spacingLeft=64;spacingRight=4;overflow=hidden;rotatable=0;points=[[0,0.5],[1,0.5]];portConstraint=eastwest;dropTarget=0;" parent="in_tTlV5oy0GcPjxDq5F-683" vertex="1">
          <mxGeometry y="52" width="155" height="26" as="geometry" />
        </mxCell>
        <mxCell id="in_tTlV5oy0GcPjxDq5F-687" value="" style="shape=partialRectangle;top=0;left=0;bottom=0;fillColor=none;align=left;verticalAlign=middle;spacingLeft=4;spacingRight=4;overflow=hidden;rotatable=180;points=[];portConstraint=eastwest;part=1;" parent="in_tTlV5oy0GcPjxDq5F-686" vertex="1" connectable="0">
          <mxGeometry width="54" height="26" as="geometry" />
        </mxCell>
        <mxCell id="in_tTlV5oy0GcPjxDq5F-688" style="edgeStyle=orthogonalEdgeStyle;rounded=0;orthogonalLoop=1;jettySize=auto;html=1;entryX=0;entryY=0.5;entryDx=0;entryDy=0;startArrow=ERoneToMany;startFill=0;endArrow=ERmandOne;endFill=0;" parent="1" source="in_tTlV5oy0GcPjxDq5F-681" target="in_tTlV5oy0GcPjxDq5F-684" edge="1">
          <mxGeometry relative="1" as="geometry">
            <mxPoint x="680" y="525" as="sourcePoint" />
            <mxPoint x="720" y="499" as="targetPoint" />
          </mxGeometry>
        </mxCell>
        <mxCell id="psbHED3_MxhWna70VKSI-4" style="edgeStyle=orthogonalEdgeStyle;rounded=0;orthogonalLoop=1;jettySize=auto;html=1;exitX=1;exitY=0.5;exitDx=0;exitDy=0;endArrow=ERoneToMany;endFill=0;startArrow=ERmandOne;startFill=0;" parent="1" source="in_tTlV5oy0GcPjxDq5F-549" target="psbHED3_MxhWna70VKSI-2" edge="1">
          <mxGeometry relative="1" as="geometry">
            <Array as="points">
              <mxPoint x="690" y="235" />
              <mxPoint x="690" y="171" />
            </Array>
          </mxGeometry>
        </mxCell>
      </root>
    </mxGraphModel>
  </diagram>
</mxfile>
